<?xml version="1.0" standalone="no"?>
<!DOCTYPE svg PUBLIC "-//W3C//DTD SVG 20010904//EN"
 "http://www.w3.org/TR/2001/REC-SVG-20010904/DTD/svg10.dtd">
<svg version="1.0" xmlns="http://www.w3.org/2000/svg"
 width="200.000000pt" height="200.000000pt" viewBox="0 0 200.000000 200.000000"
 preserveAspectRatio="xMidYMid meet">

<g transform="translate(0.000000,200.000000) scale(0.100000,-0.100000)"
fill="#000000" stroke="none">
<path d="M976 1414 c-8 -7 -17 -37 -21 -66 -4 -29 -13 -84 -20 -123 -24 -127
-26 -155 -13 -155 8 0 13 15 14 42 0 23 5 43 11 45 8 3 10 20 6 49 -3 28 -1
44 6 44 6 0 10 15 9 33 -1 19 2 39 6 45 8 13 45 16 47 5 9 -44 5 -75 -9 -86
-10 -6 -22 -19 -29 -27 -10 -13 -8 -16 14 -15 14 0 30 -7 36 -17 15 -23 -9
-51 -40 -45 -20 4 -21 2 -11 -12 7 -9 13 -18 15 -20 1 -2 13 10 27 25 29 35
35 30 39 -24 1 -26 7 -42 15 -42 8 0 10 8 7 23 -3 12 -7 38 -9 57 -2 19 -8 55
-14 80 -6 25 -13 63 -16 85 -9 78 -18 103 -37 108 -11 3 -26 -1 -33 -9z m44
-45 c0 -12 -7 -17 -20 -16 -13 1 -20 8 -20 23 0 17 4 21 20 17 11 -3 20 -14
20 -24z m25 -140 c4 -11 4 -23 1 -27 -10 -9 -39 25 -32 37 11 17 24 13 31 -10z"/>
<path d="M987 1310 c-3 -13 0 -20 9 -20 8 0 14 9 14 20 0 11 -4 20 -9 20 -5 0
-11 -9 -14 -20z"/>
<path d="M990 1169 c0 -5 5 -7 10 -4 6 3 10 8 10 11 0 2 -4 4 -10 4 -5 0 -10
-5 -10 -11z"/>
<path d="M772 973 l3 -58 63 -3 c38 -2 62 1 62 8 0 6 -23 10 -55 10 l-55 0 0
50 c0 28 -5 50 -10 50 -7 0 -10 -22 -8 -57z"/>
<path d="M932 973 l3 -58 63 -3 c36 -2 62 1 62 7 0 5 -24 11 -52 13 -29 2 -53
8 -53 13 0 6 24 11 53 13 28 2 52 7 52 12 0 5 -24 10 -52 12 -67 4 -65 22 2
26 73 4 61 22 -15 22 l-66 0 3 -57z"/>
<path d="M1102 1018 c-7 -7 -12 -22 -12 -35 0 -21 4 -23 55 -23 42 0 55 -3 55
-15 0 -12 -13 -15 -55 -15 -32 0 -55 -4 -55 -10 0 -7 25 -10 68 -8 l67 3 3 32
3 32 -56 3 c-71 4 -72 22 0 26 30 2 55 7 55 12 0 14 -114 12 -128 -2z"/>
<path d="M204 660 l1 -65 53 -3 c30 -2 52 1 52 7 0 5 -21 11 -47 13 l-48 3 -6
55 -6 55 1 -65z"/>
<path d="M342 708 c-17 -17 -15 -93 2 -107 8 -7 34 -11 58 -9 l43 3 3 63 3 62
-49 0 c-26 0 -53 -5 -60 -12z m96 -55 c-3 -37 -4 -38 -43 -38 -39 0 -40 1 -43
38 l-3 37 46 0 46 0 -3 -37z"/>
<path d="M480 710 c0 -19 54 -120 65 -120 11 0 65 101 65 120 0 25 -20 5 -36
-35 -9 -25 -21 -48 -25 -51 -5 -2 -18 18 -30 46 -19 45 -39 65 -39 40z"/>
<path d="M653 713 c-9 -3 -13 -26 -12 -66 0 -47 2 -57 9 -39 7 17 17 22 46 22
29 0 37 -4 42 -22 5 -16 9 -5 13 37 3 33 4 63 2 68 -5 8 -81 8 -100 0z m87
-43 c0 -17 -7 -20 -45 -20 -31 0 -45 4 -45 13 0 21 11 27 52 27 31 0 38 -3 38
-20z"/>
<path d="M792 708 c-7 -7 -12 -25 -12 -40 0 -27 2 -28 51 -28 66 0 62 -24 -4
-28 -62 -4 -61 -22 1 -22 53 0 72 12 72 47 0 21 -4 23 -50 23 -37 0 -50 4 -50
14 0 11 14 16 47 18 26 2 48 9 51 16 5 16 -89 17 -106 0z"/>
<path d="M972 658 l3 -63 53 -3 c31 -2 52 1 52 7 0 6 -20 11 -45 11 -33 0 -45
4 -45 15 0 11 12 15 45 15 34 0 45 4 45 16 0 12 -9 15 -42 13 -26 -2 -43 1
-46 9 -2 8 10 12 42 12 34 0 46 4 46 15 0 12 -13 15 -55 15 l-56 0 3 -62z"/>
<path d="M1111 701 c-14 -25 -14 -111 -1 -111 6 0 10 23 10 50 l0 50 45 0 45
0 0 -50 c0 -28 5 -50 10 -50 7 0 10 24 8 63 l-3 62 -52 3 c-43 3 -54 0 -62
-17z"/>
<path d="M1250 667 c0 -29 5 -58 12 -65 14 -14 98 -16 98 -3 0 6 -19 11 -42
13 -59 4 -63 28 -4 28 32 0 46 4 46 14 0 9 -13 13 -42 13 -24 0 -43 4 -46 11
-2 8 11 12 42 12 34 0 46 4 46 15 0 12 -13 15 -55 15 l-55 0 0 -53z"/>
<path d="M1403 713 c-16 -6 -18 -123 -3 -123 6 0 10 9 10 20 0 16 7 20 30 20
19 0 33 -7 40 -20 6 -11 15 -20 21 -20 6 0 5 8 -2 21 -8 15 -8 24 0 32 6 6 11
26 11 44 0 33 0 33 -47 32 -27 0 -54 -3 -60 -6z m87 -38 c0 -11 -11 -15 -40
-15 -29 0 -40 4 -40 15 0 11 11 15 40 15 29 0 40 -4 40 -15z"/>
<path d="M1553 713 c-9 -3 -13 -26 -13 -64 l0 -59 55 0 55 0 -1 33 c0 29 -1
30 -9 10 -7 -18 -17 -23 -45 -23 -34 0 -35 1 -35 40 l0 40 45 0 c33 0 45 4 45
15 0 11 -11 15 -42 14 -24 0 -49 -3 -55 -6z"/>
<path d="M1680 670 c0 -47 2 -50 25 -50 16 0 25 -6 25 -15 0 -8 5 -15 10 -15
6 0 10 6 10 14 0 8 10 16 23 18 19 3 22 10 25 51 2 28 -1 47 -7 47 -6 0 -11
-18 -11 -40 l0 -40 -40 0 -40 0 0 40 c0 22 -4 40 -10 40 -5 0 -10 -22 -10 -50z"/>
</g>
</svg>
